<svg width="590" height="569" viewBox="0 0 590 569" fill="none" xmlns="http://www.w3.org/2000/svg">
<path d="M337.74 356.84C350.03 355.77 362.35 356.44 374.65 356.49C379.16 356.49 380.65 355.4 380.48 350.72C380.14 339.41 380.48 328.07 380.3 316.72C380.24 313.22 380.84 311.72 384.85 311.85C397.01 312.14 409.17 312.03 421.33 311.85C424.09 311.85 425.06 312.51 425.03 315.43C424.87 327.923 424.87 340.413 425.03 352.9C425.03 355.81 424.08 356.57 421.32 356.54C409.66 356.42 397.99 356.6 386.32 356.43C382.97 356.37 381.67 357.14 381.74 360.78C381.953 372.78 381.953 384.78 381.74 396.78C381.67 400.28 382.99 400.84 386.04 400.78C397.86 400.64 409.69 400.6 421.52 400.78C424.92 400.83 426.12 400.04 426.04 396.42C425.8 385.1 426.04 373.76 425.88 362.42C425.88 359.18 426.69 358.11 430.02 358.17C441.02 358.36 452.02 358.17 463.02 358.3C466.02 358.3 467.02 357.62 467.02 354.44C466.9 327.107 466.9 299.773 467.02 272.44C467.02 269.23 466.02 268.58 463.02 268.62C451.69 268.77 440.36 268.62 429.02 268.74C425.9 268.74 424.65 268.09 424.71 264.65C424.91 252.16 424.88 239.65 424.71 227.17C424.71 224.17 425.5 223.17 428.62 223.17C440.11 223.34 451.62 223.38 463.1 223.17C466.66 223.1 467.1 224.57 467.1 227.57C466.98 239.73 467.15 251.89 466.99 264.05C466.99 267.27 467.83 268.35 471.18 268.31C485.5 268.13 499.82 268.23 514.18 268.24C516.18 268.24 518.04 268.49 518.11 265.33C518.55 246.68 526.21 231.67 541.6 220.33C526.48 212.58 519.97 199.58 518.38 183.64C518.07 180.59 516.88 179.91 514 179.94C499.84 180.09 485.68 179.94 471.53 180.08C468.29 180.08 467.21 179.25 467.26 175.92C467.44 163.773 467.44 151.617 467.26 139.45C467.26 135.96 468.26 134.9 471.78 134.95C485.78 135.13 499.78 134.9 513.78 135.11C517.37 135.16 518.23 134.04 518.17 130.61C517.96 119.12 517.93 107.61 518.17 96.13C518.25 92.36 517.17 91.39 513.43 91.41C485.61 91.57 457.79 91.41 429.97 91.59C425.81 91.59 424.62 90.53 424.72 86.37C425 74.55 424.72 62.71 424.9 50.89C424.96 47.37 423.9 46.38 420.4 46.44C408.57 46.63 396.74 46.44 384.92 46.58C381.54 46.58 380.24 45.77 380.3 42.14C380.513 30.14 380.513 18.14 380.3 6.14001C380.23 2.47001 381.55 1.77001 384.88 1.82001C396.88 2.00001 408.88 2.00001 420.88 1.82001C424.08 1.77001 425.13 2.59 425.07 5.93C424.87 17.93 425.07 29.93 424.92 41.93C424.92 45.17 425.75 46.18 429.06 46.13C440.72 45.93 452.387 45.93 464.06 46.13C467.38 46.18 468.25 45.13 468.21 41.91C468.04 29.58 468.21 17.25 468.07 4.91001C468.07 1.68001 468.91 0.639998 472.24 0.679998C488.07 0.869998 503.9 0.47001 519.71 0.88001C546.26 1.56001 563.49 19.81 563.54 47C563.62 90.64 563.54 134.29 563.54 177.93C563.492 181.153 564.201 184.341 565.611 187.24C567.02 190.138 569.09 192.665 571.655 194.618C574.219 196.57 577.206 197.893 580.375 198.481C583.544 199.068 586.806 198.904 589.9 198V244C585.918 243.633 581.902 243.937 578.02 244.9C569.34 247.29 564.49 252.97 563.69 261.9C563.52 263.72 563.52 265.55 563.52 267.38C563.52 312 563.6 356.63 563.52 401.25C563.46 419.88 555.88 434.36 538.77 442.95C533.067 445.737 526.787 447.141 520.44 447.05C475.65 447.05 430.86 447 386.07 447.14C382.31 447.14 381.26 446.14 381.33 442.42C381.56 429.93 381.33 417.42 381.49 404.96C381.55 401.46 380.49 400.38 376.99 400.45C363.85 400.72 350.7 400.71 337.56 400.8L337.64 400.86C336.905 386.203 336.905 371.517 337.64 356.86L337.74 356.84ZM493.86 400.84C500.52 400.84 507.19 400.7 513.86 400.9C516.99 400.99 518.23 400.24 518.16 396.8C517.95 385.48 518 374.15 518.16 362.8C518.16 359.88 517.56 358.72 514.33 358.8C500.67 358.98 487.01 358.93 473.33 358.8C470.67 358.8 469.46 359.37 469.5 362.36C469.64 374.02 469.64 385.687 469.5 397.36C469.5 400.36 470.75 400.93 473.38 400.88C480.19 400.72 487 400.81 493.86 400.81V400.84Z" fill="#595590"/>
<path d="M115 264C115.06 293.48 115.24 322.95 115.06 352.43C115.06 357.29 116.33 358.62 121.14 358.43C132.14 358.06 143.14 358.5 154.14 358.22C158.43 358.11 159.98 359.16 159.84 363.73C159.51 374.54 159.9 385.38 159.64 396.2C159.55 400.04 160.81 400.99 164.47 400.92C176.13 400.71 187.79 400.92 199.47 400.77C202.9 400.77 204.07 401.64 204.01 405.21C203.81 417.53 203.85 429.86 204.01 442.21C204.01 445.28 203.07 446.21 200.01 446.21C187.69 446.057 175.357 446.057 163.01 446.21C159.85 446.21 159.08 445.12 159.11 442.15C159.25 429.83 159.11 417.5 159.24 405.15C159.24 401.88 158.33 400.88 155.04 400.93C143.04 401.11 131.04 401.11 119.04 400.93C115.94 400.93 115.04 401.93 115.11 404.93C115.26 417.09 115.04 429.25 115.25 441.41C115.32 445.06 114.41 446.28 110.57 446.22C96.75 445.99 82.92 446.22 69.1 446.11C44.72 445.99 26.31 427.65 26.1 403.03C25.91 380.71 26.1 358.39 26.1 336.03C26.1 314.54 25.76 293.03 26.23 271.57C26.51 258.64 15.58 246.68 0.109985 250.02V204C2.10552 204.164 4.10806 204.228 6.10999 204.19C19.11 203.35 26.11 195.95 26.11 182.9C26.15 137.44 26.15 91.9767 26.11 46.51C26.11 32.86 30.88 21.19 41.35 12.13C48.5147 5.74987 57.7565 2.19533 67.35 2.13002C96.82 1.88002 126.3 2.13001 155.78 1.95001C159.41 1.95001 159.78 3.46001 159.78 6.40001C159.67 18.22 159.85 30.05 159.66 41.87C159.66 45.37 160.66 46.47 164.2 46.41C175.85 46.22 187.52 46.41 199.2 46.27C202.92 46.21 204.09 47.37 204.02 51.12C203.807 62.94 203.807 74.76 204.02 86.58C204.08 90.06 203.11 91.15 199.57 91.08C187.75 90.87 175.93 91.13 164.1 90.93C160.59 90.86 159.62 91.93 159.68 95.39C159.893 107.21 159.893 119.033 159.68 130.86C159.68 134.38 160.77 135.43 164.24 135.38C175.89 135.2 187.56 135.44 199.24 135.24C202.98 135.17 204.11 136.38 204.04 140.1C203.83 152.1 203.87 164.1 204.04 176.1C204.04 179.16 203.15 180.1 200.04 180.1C187.713 179.94 175.38 179.94 163.04 180.1C159.94 180.1 159.04 179.17 159.1 176.1C159.25 164.1 159.1 152.1 159.22 140.1C159.22 136.93 158.44 135.79 155.08 135.8C128.413 135.927 101.767 135.927 75.14 135.8C71.78 135.8 70.96 136.89 71 140.07C71.16 152.39 70.71 164.73 71.14 177.07C71.88 197.78 65.23 214.92 47.83 227.69C58.26 233.21 65.15 241.37 68.58 252.35C68.98 253.62 69.4 254.88 69.68 256.17C71.44 263.99 71.42 263.99 79.61 264H115.08H115ZM159.17 69.1C159.17 63.1 159.04 57.1 159.22 51.1C159.31 48.04 158.64 46.62 155.15 46.68C143.15 46.87 131.15 46.83 119.15 46.68C116.15 46.68 115.08 47.55 115.15 50.68C115.29 63.0067 115.29 75.34 115.15 87.68C115.15 90.68 116.3 91.3 118.98 91.27C131.14 91.17 143.31 91.12 155.47 91.27C158.78 91.27 159.3 89.9 159.23 87.1C159.06 81.1 159.17 75.1 159.17 69.1ZM93 358.85C87 358.85 81 358.98 75 358.79C72.07 358.7 70.91 359.46 71 362.64C71.18 373.64 71.14 384.64 71 395.57C71 398.32 71.76 399.36 74.64 399.33C86.9533 399.197 99.26 399.197 111.56 399.33C114.56 399.33 115.09 398.03 115.07 395.43C114.97 384.43 114.95 373.48 115.07 362.51C115.07 359.72 114.28 358.71 111.42 358.79C105.31 359 99.15 358.85 93 358.85Z" fill="#C3CF43"/>
<path d="M469.94 568.9C469.667 567.634 469.31 566.388 468.87 565.17C467.48 561.95 468.51 561.17 471.87 560.83C480.17 559.91 486.19 548.33 482.47 541.07C477.27 530.91 472.02 520.78 466.72 510.52C475.79 509.04 475.72 509.05 479.43 516.7C482.37 522.79 485.43 528.84 488.99 536.09C491.75 529.09 493.99 523.09 496.44 517.28C500.1 508.58 497.25 509.71 508.21 510.28C501.21 525.7 496.45 541.82 488.21 556.49C484.95 562.3 479.76 566.02 473.89 568.89L469.94 568.9Z" fill="#595590"/>
<path d="M337.74 356.84L337.56 356.9C294.77 356.9 251.98 356.8 209.19 356.9C204.7 356.9 203.1 355.9 203.19 351.13C203.53 339.99 203.48 328.82 203.19 317.67C203.09 313.41 204.12 311.83 208.7 311.96C220.35 312.29 232.01 311.96 243.7 312.15C247.04 312.15 247.95 311.15 247.91 307.9C247.76 295.24 248.02 282.59 247.75 269.9C247.67 265.83 248.99 264.9 252.83 264.97C264.31 265.2 275.83 265.24 287.29 264.97C291.42 264.86 292.29 266.32 292.18 270.08C291.97 282.23 292.29 294.4 292.01 306.54C291.91 310.8 292.82 312.31 297.42 312.17C309.23 311.82 321.06 312.17 332.88 311.97C336.66 311.9 337.75 313.13 337.71 316.82C337.58 330.2 337.71 343.52 337.74 356.84Z" fill="#C3CF43"/>
<path d="M115.09 264C115.09 237.85 115.09 211.7 114.99 185.56C114.99 182.13 115.83 180.97 119.41 181.04C131.06 181.25 142.73 181.35 154.41 181.04C159.1 180.9 159.87 182.69 159.84 186.83C159.68 210.83 159.84 234.83 159.67 258.77C159.67 262.83 160.58 264.22 164.85 264.11C176.003 263.797 187.16 263.797 198.32 264.11C202.61 264.22 203.58 262.79 203.48 258.75C203.22 247.27 203.48 235.75 203.32 224.28C203.26 220.74 204.43 219.76 207.87 219.82C219.87 220 231.87 220 243.87 219.82C247.04 219.82 248.21 220.56 248.16 223.95C247.97 235.95 247.94 247.95 248.16 259.95C248.23 263.68 246.79 264.29 243.53 264.24C231.87 264.08 220.21 264.34 208.53 264.09C204.66 264 203.78 265.26 203.85 268.91C204.07 280.73 203.85 292.56 204 304.38C204 307.62 203 308.8 199.74 308.76C187.58 308.62 175.423 308.62 163.27 308.76C159.83 308.76 159.11 307.33 159.15 304.25C159.28 292.43 159.04 280.6 159.29 268.78C159.37 264.94 158.15 264.04 154.48 264.08C141.34 264.24 128.19 264.08 115.04 263.98L115.09 264Z" fill="#C3CF43"/>
<path d="M292.1 135.66C305.26 135.59 318.41 135.36 331.56 135.54C335.42 135.6 336.28 134.35 336.21 130.73C335.99 119.07 336.21 107.41 336.07 95.73C336.02 92.43 336.71 91.03 340.41 91.1C352.41 91.33 364.41 91.31 376.41 91.1C379.87 91.05 380.99 92.02 380.93 95.57C380.72 107.39 380.93 119.22 380.77 131.04C380.71 134.56 381.77 135.55 385.26 135.49C396.91 135.29 408.58 135.54 420.26 135.34C423.78 135.28 425.21 135.93 425.12 139.92C424.83 152.07 424.93 164.23 425.07 176.39C425.07 179.17 424.38 180.11 421.48 180.07C408.993 179.917 396.5 179.917 384 180.07C381.09 180.07 380.34 179.07 380.37 176.34C380.49 164.34 380.31 152.34 380.49 140.34C380.49 136.98 379.76 135.69 376.13 135.76C364.47 135.98 352.81 136.03 341.13 135.76C337.13 135.67 336.48 137.1 336.54 140.64C336.74 152.29 336.54 163.96 336.69 175.64C336.76 179.12 335.78 180.17 332.26 180.11C320.26 179.89 308.26 179.95 296.26 180.11C293.26 180.11 291.85 179.74 291.92 176.16C292.18 162.67 292.09 149.16 292.12 135.69L292.1 135.66Z" fill="#595590"/>
<path d="M291 1.00002C305.15 1.00002 319.31 1.10002 333.46 0.920015C336.77 0.920015 337.71 1.87001 337.67 5.12001C337.51 17.94 337.51 30.76 337.67 43.58C337.72 46.92 336.57 47.8 333.36 47.79C305.22 47.6767 277.083 47.6767 248.95 47.79C245.59 47.79 244.78 46.7 244.82 43.5C244.993 30.6933 244.993 17.8767 244.82 5.05002C244.82 1.70002 245.87 0.880015 249.06 0.920015C263 1.00002 277 1.00002 291 1.00002Z" fill="#595590"/>
<path d="M337.59 400.9L337.51 400.84C337.51 414.98 337.51 429.12 337.72 443.26C337.72 446.42 336.58 447.14 333.64 447.13C305.36 447.037 277.08 447.037 248.8 447.13C245.8 447.13 244.8 446.26 244.8 443.13C244.953 430.33 244.953 417.523 244.8 404.71C244.8 401.71 245.63 400.71 248.74 400.71C278.37 400.89 308 400.88 337.59 400.9Z" fill="#C3CF43"/>
<path d="M358.49 224C364.81 224 371.12 224.09 377.49 224C380.04 223.94 380.95 224.7 380.93 227.36C380.81 239.987 380.81 252.62 380.93 265.26C380.93 267.9 380.02 268.69 377.46 268.67C364.827 268.583 352.197 268.583 339.57 268.67C336.99 268.67 336.11 267.85 336.13 265.23C336.243 252.603 336.243 239.973 336.13 227.34C336.13 224.65 337.07 223.94 339.6 224C345.86 224.11 352.18 224 358.49 224Z" fill="#595590"/>
<path d="M292.1 135.66C278.47 135.74 264.83 135.77 251.19 135.95C248.49 135.95 247.82 134.95 247.83 132.41C247.917 119.743 247.917 107.097 247.83 94.47C247.83 91.74 248.93 91.13 251.4 91.14C263.71 91.23 276.03 91.28 288.34 91.14C291.56 91.14 292.2 92.36 292.18 95.25C292.06 108.7 292.11 122.18 292.1 135.66Z" fill="#C3CF43"/>
<path d="M412.4 515.13C421.07 507.28 428.64 506.86 436.16 513.13C437.7 514.41 438.24 513.81 439.31 512.81C443.45 508.96 448.49 508.33 453.78 509.22C459.07 510.11 462.78 514.36 462.89 520.15C463.08 528.31 462.79 536.48 463.01 544.63C463.12 548.63 460.6 547.8 458.4 547.78C456.2 547.76 453.61 548.62 453.74 544.66C453.96 538 453.82 531.33 453.74 524.66C453.74 520.95 454.02 516.89 448.79 516.44C444.2 516.06 438.97 520.51 438.79 525.03C438.58 531.35 438.51 537.7 438.79 544.03C438.98 547.9 436.89 547.83 434.17 547.87C431.45 547.91 429.44 547.82 429.62 544.02C429.93 537.54 429.81 531.02 429.62 524.54C429.54 520.89 429.62 516.78 424.38 516.48C419.57 516.21 414.78 520.53 414.7 525.21C414.6 531.37 414.44 537.55 414.76 543.69C414.96 547.62 413.06 547.9 409.97 547.89C406.88 547.88 404.97 547.76 405.13 543.76C405.41 533.95 405.2 524.11 405.24 514.29C405.24 512.29 404.43 509.75 408.13 509.92C411.12 510 414.12 509.48 412.4 515.13Z" fill="#595590"/>
<path d="M344.38 511.64C344.38 504.82 344.62 497.9 344.29 491C344.1 486.8 346.41 487.11 349.29 487C352.35 486.89 353.73 487.54 353.7 491C353.53 508.65 353.64 526.3 353.59 544C353.59 545.5 354.27 547.86 351.59 547.66C349.65 547.5 346.65 549.49 345.93 545.78C345.44 543.27 344.5 543.86 342.93 544.87C330.18 553.09 316.6 546.04 315.84 530.8C315.698 528.308 315.812 525.809 316.18 523.34C318.05 511.52 329.29 505.49 340.18 510.28C341.37 510.78 342.24 512.05 344.38 511.64ZM344.38 529.53V526.13C344.38 520.13 341.62 516.79 335.96 516.01C330.96 515.33 326.85 518.37 325.4 523.83C324.644 526.745 324.586 529.798 325.23 532.74C327.07 541.66 335.23 544.26 342.23 538.41C345.55 535.68 343.83 532.25 344.38 529.53Z" fill="#595590"/>
<path d="M145.18 521.06C145.18 528.71 144.99 536.37 145.26 544.06C145.4 547.9 143.38 547.93 140.64 547.87C138.09 547.8 135.64 548.27 135.85 544.24C136.13 538.93 135.85 533.6 135.96 528.24C136.03 525.42 135.38 523.91 132.12 524.01C125.97 524.2 119.81 524.14 113.66 524.01C111.07 524.01 110.12 525.01 110.17 527.55C110.27 533.2 110.03 538.86 110.25 544.55C110.4 548.39 107.93 547.86 105.64 547.79C103.35 547.72 100.86 548.67 100.89 544.72C101.003 528.72 101.003 512.753 100.89 496.82C100.89 492.82 103.65 493.98 105.73 493.82C108.09 493.66 110.43 493.38 110.24 497.14C110 501.95 110.24 506.79 110.15 511.61C110.06 514.42 110.72 515.94 113.98 515.84C120.13 515.65 126.29 515.71 132.44 515.84C135.04 515.89 136 514.84 135.94 512.31C135.82 507.65 136.18 502.97 135.83 498.31C135.52 494.31 137.15 493.65 140.69 493.68C144.06 493.68 145.38 494.5 145.25 498.11C145 505.75 145.18 513.41 145.18 521.06Z" fill="#C3CF43"/>
<path d="M247.14 521C253.88 516.08 257.8 506.64 268.87 510.81C265.54 514.01 262.47 517.2 259.14 520.09C256.51 522.37 256.21 524.33 258.33 527.26C262.41 532.91 266.08 538.86 269.98 544.64C271.5 546.89 271.15 547.64 268.32 547.89C263.98 548.2 260.68 547.36 258.53 543.02C256.78 539.48 254.27 536.3 252.01 533.02C251.24 531.91 250.77 529.82 249.01 530.49C247.41 531.08 246.86 532.81 246.92 534.65C247.01 537.81 246.75 540.99 246.99 544.13C247.25 547.49 245.54 548.05 242.78 547.85C240.23 547.66 237.32 548.61 237.35 544.21C237.457 526.403 237.457 508.6 237.35 490.8C237.35 486.46 240.09 487.28 242.7 487.05C245.92 486.76 247.1 487.83 247.02 491.2C246.81 500.2 246.95 509.2 246.96 518.2C246.9 518.88 247 519.64 247.14 521Z" fill="#C3CF43"/>
<path d="M299.3 543C294.44 546.82 289.9 548.93 284.75 548.63C279.94 548.35 276.18 546.17 274.75 541.07C274.048 538.668 274.082 536.111 274.846 533.728C275.611 531.345 277.071 529.245 279.04 527.7C283.32 524.41 288.35 523.63 293.55 523.23C295.07 523.11 297.65 524.53 297.86 521.56C298.03 519.16 296.45 517.56 294.12 516.9C290.058 515.905 285.79 516.166 281.88 517.65C280.46 518.12 278.59 519.72 278.26 516.71C278.05 514.71 275.57 512.16 279.26 510.83C286.36 508.26 293.55 507.69 300.6 510.83C304.91 512.73 307.11 516.34 307.13 521.12C307.13 528.27 307.25 535.42 307.05 542.56C307.05 544.33 308.67 547.28 305.11 547.69C302.32 548 299.18 548.42 299.3 543ZM298.14 533.26C297.95 532.13 298.63 530.63 297.28 529.72C294.07 527.56 285.16 531.08 284.28 534.86C283.73 537.15 284.19 539.25 286.28 540.48C290.73 543.1 298.16 538.59 298.14 533.29V533.26Z" fill="#595590"/>
<path d="M383.24 529.77C380.41 529.77 377.58 529.91 374.76 529.77C371.76 529.58 371.5 531.06 372.11 533.43C373.55 539.09 379.11 542.17 385.94 540.83C387.72 540.49 389.37 539.55 391.13 539.12C392.38 538.81 394.13 536.28 394.93 539.5C395.44 541.5 397.06 543.67 393.93 545.5C385.61 550.5 373.35 549.62 367.46 543.31C360.74 536.1 360.25 523.85 366.35 515.65C371.45 508.81 383.64 506.5 390.82 511.02C395.74 514.11 398.18 522.59 395.82 527.96C395.04 529.75 393.71 529.8 392.17 529.79L383.24 529.77ZM379.61 523.06C380.607 523.177 381.613 523.177 382.61 523.06C384.26 522.67 387.11 524.49 387.24 521.12C387.35 518.45 385.42 516.89 382.99 516.28C381.699 515.968 380.349 515.992 379.07 516.35C376.25 517.16 373.07 518.91 373.31 521.74C373.55 524.57 377.13 522.48 379.13 523.09C379.291 523.103 379.452 523.093 379.61 523.06V523.06Z" fill="#595590"/>
<path d="M179.14 542.87C176.177 545.537 172.595 547.424 168.72 548.36C162.72 549.73 157.35 547.44 155.24 542.64C154.084 540.033 153.859 537.108 154.604 534.355C155.348 531.602 157.017 529.189 159.33 527.52C163.66 524.29 168.72 523.62 173.89 523.2C175.33 523.09 177.66 524.2 177.89 521.62C177.99 520.517 177.658 519.418 176.964 518.555C176.27 517.691 175.269 517.13 174.17 516.99C170.089 516.131 165.853 516.362 161.89 517.66C160.63 518.05 158.64 520 158.15 516.85C157.82 514.7 155.58 512.1 159.54 510.71C166.54 508.27 173.54 507.86 180.44 510.77C184.98 512.7 187.15 516.53 187.17 521.48C187.17 528.48 187.3 535.48 187.1 542.42C187.04 544.31 188.82 547.36 184.76 547.8C181.46 548.16 179.15 547.48 179.14 542.87ZM174.26 529.6C167.37 529.85 163.8 532.3 164.09 536.42C164.31 539.59 166.09 541.11 169.32 541.02C174.62 540.88 177.95 537.69 178.11 533.12C178.23 529.65 176.49 529.27 174.26 529.6Z" fill="#C3CF43"/>
<path d="M227.51 537C229.44 545.52 229.2 545.9 221.23 547.86C212.23 550.07 203.85 547.71 199.52 541.73C194.52 534.73 194.23 523.65 198.96 516.27C202.83 510.27 211.62 507.41 220.96 509.27C222.59 509.59 224.15 510.19 225.77 510.57C230.02 511.57 228.27 514.47 227.7 516.85C226.91 520.1 225.01 518.57 223.15 517.85C220.36 516.75 217.48 515.85 214.41 516.13C208.07 516.8 205.14 521.52 205.72 529.98C206.2 536.9 210.12 541.08 216.03 541.1C220.21 541.05 223.74 539.27 227.51 537Z" fill="#C3CF43"/>
</svg>
