<svg width="150" height="150" viewBox="0 0 150 150" fill="none" xmlns="http://www.w3.org/2000/svg">
<path d="M1.48515 0H0V1.48515H1.48515V0Z" fill="black"/>
<path fill-rule="evenodd" clip-rule="evenodd" d="M85.8416 40.396L85.6931 0.445541H63.4158L63.5643 40.396L74.703 55.6931L85.8416 40.396V40.396ZM63.5643 108.861V148.96H85.8416V108.861L74.703 93.5643L63.5643 108.861Z" fill="white"/>
<path fill-rule="evenodd" clip-rule="evenodd" d="M85.8416 108.861L109.307 141.238L127.277 128.168L103.812 95.7921L85.8416 90V108.861V108.861ZM63.5644 40.396L39.9505 8.0198L21.9802 21.0891L45.4455 53.4653L63.5644 59.2574V40.396V40.396Z" fill="#00F2E6"/>
<path fill-rule="evenodd" clip-rule="evenodd" d="M45.4455 53.4653L7.42574 41.1386L0.594055 62.2277L38.6139 74.703L56.5842 68.7624L45.4455 53.4653ZM92.6733 80.495L103.812 95.7921L141.832 108.119L148.663 87.0297L110.644 74.703L92.6733 80.495V80.495Z" fill="#00B9F1"/>
<path fill-rule="evenodd" clip-rule="evenodd" d="M110.644 74.703L148.663 62.2277L141.832 41.1386L103.812 53.4653L92.6733 68.7624L110.644 74.703ZM38.6139 74.703L0.594055 87.0297L7.42574 108.119L45.4455 95.7921L56.5842 80.495L38.6139 74.703Z" fill="#D63AFF"/>
<path fill-rule="evenodd" clip-rule="evenodd" d="M45.4455 95.7921L21.9802 128.168L39.9505 141.238L63.5644 108.861V90L45.4455 95.7921V95.7921ZM103.812 53.4653L127.277 21.0891L109.307 8.0198L85.8416 40.396V59.2574L103.812 53.4653Z" fill="#FB015B"/>
</svg>
