<svg width="150" height="150" viewBox="0 0 150 150" fill="none" xmlns="http://www.w3.org/2000/svg">
<path d="M45.7418 88.2508C53.2523 88.2508 59.3408 82.1623 59.3408 74.6512C59.3408 67.1412 53.2523 61.0527 45.7412 61.0527C38.2313 61.0527 32.1428 67.1406 32.1428 74.6518C32.1428 82.1623 38.2313 88.2508 45.7418 88.2508ZM13.599 115.448C21.1096 115.448 27.198 109.36 27.198 101.849C27.198 94.3393 21.1096 88.2508 13.5984 88.2508C6.08906 88.2508 0 94.3387 0 101.849C0 109.36 6.08789 115.449 13.599 115.449V115.448ZM136.401 115.448C143.912 115.448 150 109.36 150 101.849C150 94.3393 143.912 88.2508 136.401 88.2508C128.89 88.2508 122.802 94.3387 122.802 101.849C122.802 109.36 128.89 115.449 136.402 115.449L136.401 115.448Z" fill="white"/>
<path d="M91.7373 75.2248C91.3025 70.6814 91.0811 66.8998 87.6006 64.242C83.1932 60.8764 78.1998 63.0602 72.0498 60.84C66.0059 59.3781 61.5234 54.0127 61.5234 47.6172C61.5234 40.0967 67.7215 34 75.3668 34C81.0299 34 85.8984 37.3439 88.043 42.1346C91.3248 48.3689 89.1914 54.7129 93.3152 57.9086C98.1978 61.6926 104.781 58.9217 112.126 62.507C114.471 63.5829 116.468 65.2928 117.892 67.4436C119.346 69.64 120.12 72.2163 120.117 74.8504C120.117 81.2459 115.635 86.6119 109.591 88.0738C103.441 90.2939 98.4475 88.1102 94.04 91.4758C89.083 95.2609 91.7367 101.593 87.6967 108.282C85.4039 112.687 80.7434 115.701 75.3668 115.701C67.7215 115.701 61.5234 109.605 61.5234 102.084C61.5234 96.6215 64.7941 91.91 69.5145 89.7408C76.8598 86.1549 83.4422 88.9264 88.3254 85.1424C91.142 82.9592 91.7373 79.5918 91.7373 75.2248V75.2248Z" fill="#CA4245"/>
</svg>
