<svg width="150" height="150" viewBox="0 0 150 150" fill="none" xmlns="http://www.w3.org/2000/svg">
<path d="M88.9375 75.025C88.9375 78.7303 87.466 82.284 84.8465 84.9046C82.2271 87.5253 78.6741 88.9983 74.9687 89C71.2623 89 67.7078 87.5276 65.0869 84.9068C62.4661 82.286 60.9937 78.7314 60.9937 75.025C60.9937 71.3197 62.4653 67.766 65.0847 65.1454C67.7042 62.5247 71.2572 61.0517 74.9625 61.05C78.6689 61.05 82.2235 62.5224 84.8443 65.1432C87.4651 67.764 88.9375 71.3186 88.9375 75.025V75.025ZM105.488 8.21249C97.075 8.21249 86.0687 14.2125 74.9375 24.6C63.8125 14.2687 52.8 8.33749 44.3938 8.33749C41.8313 8.33749 39.5 8.91874 37.4813 10.075C28.8875 15.0312 26.9625 30.475 31.4 49.8562C12.375 55.7312 0 65.125 0 75.025C0 84.9625 12.4375 94.3813 31.5188 100.213C27.1188 119.669 29.0813 135.138 37.6938 140.088C39.6938 141.256 42.0062 141.806 44.5812 141.806C52.9875 141.806 64 135.806 75.1312 125.406C86.2562 135.744 97.2688 141.675 105.675 141.675C108.238 141.675 110.569 141.113 112.587 139.956C121.175 135.006 123.106 119.563 118.669 100.175C137.625 94.35 150 84.9375 150 75.025C150 65.0875 137.563 55.6687 118.481 49.825C122.881 30.3875 120.919 14.9062 112.306 9.94999C110.319 8.79999 108.006 8.21874 105.481 8.21249H105.488ZM105.456 15.025V15.0625C106.862 15.0625 107.994 15.3375 108.944 15.8562C113.106 18.2437 114.912 27.325 113.506 39.0062C113.169 41.8812 112.619 44.9125 111.944 48.0062C105.944 46.5312 99.4062 45.4 92.525 44.6687C88.4 39.0125 84.1188 33.875 79.8063 29.375C89.7563 20.125 99.1 15.05 105.463 15.0312L105.456 15.025ZM44.3938 15.15C50.7188 15.15 60.1063 20.2 70.0813 29.4C65.7938 33.9 61.5187 39.0062 57.4562 44.6625C50.5375 45.3937 43.9937 46.525 38 48.025C37.3 44.9625 36.7813 42 36.4125 39.15C34.975 27.475 36.75 18.4 40.875 15.9812C42.0625 15.4187 43.375 15.1875 44.3938 15.1562V15.15ZM74.9062 34.2125C77.75 37.1375 80.5938 40.4125 83.4063 43.9875C80.6563 43.8625 77.8438 43.775 75 43.775C72.125 43.775 69.2813 43.8375 66.5 43.9875C69.25 40.4125 72.0937 37.1375 74.9062 34.2062V34.2125ZM75 50.625C79.625 50.625 84.2312 50.8375 88.7625 51.2062C91.3 54.8437 93.775 58.725 96.1563 62.8313C98.4813 66.8313 100.594 70.8937 102.519 74.9937C100.594 79.0875 98.4813 83.1813 96.1875 87.1813C93.8125 91.3063 91.3563 95.2313 88.8125 98.8688C84.2625 99.2625 79.65 99.4812 75 99.4812C70.375 99.4812 65.7688 99.2625 61.2375 98.9C58.7 95.2625 56.225 91.375 53.8437 87.275C51.5187 83.275 49.4063 79.2125 47.4813 75.1125C49.375 71.0062 51.5187 66.9062 53.8125 62.9C56.1875 58.775 58.6437 54.8625 61.1875 51.225C65.7375 50.825 70.35 50.6125 75 50.6125V50.625ZM52.2812 52.2125C50.7812 54.5687 49.2812 56.9812 47.8812 59.4625C46.475 61.9 45.1625 64.35 43.9125 66.8C42.2563 62.7 40.85 58.6125 39.6875 54.6312C43.6875 53.6937 47.9062 52.8625 52.2812 52.2187V52.2125ZM97.6562 52.2125C102 52.8562 106.188 53.65 110.194 54.6312C109.069 58.5812 107.663 62.6437 106.069 66.7125C104.819 64.275 103.506 61.8187 102.069 59.375C100.662 56.925 99.1625 54.5375 97.6625 52.2125H97.6562ZM116.8 56.4312C119.825 57.3687 122.7 58.4125 125.394 59.5437C136.219 64.1688 143.219 70.2187 143.219 75.0187C143.188 79.8188 136.188 85.8937 125.363 90.4875C122.738 91.6125 119.862 92.625 116.894 93.5687C115.144 87.5812 112.856 81.3438 110.019 74.9437C112.831 68.5875 115.081 62.3812 116.8 56.4187V56.4312ZM33.0813 56.4562C34.8188 62.4562 37.1125 68.6875 39.9563 75.0812C37.1438 81.4375 34.8813 87.6438 33.1688 93.6063C30.1438 92.6688 27.2688 91.6188 24.6063 90.4813C13.7813 85.875 6.78125 79.8188 6.78125 75.0187C6.78125 70.2187 13.7813 64.1313 24.6063 59.5437C27.2313 58.4187 30.1063 57.4062 33.0813 56.4562V56.4562ZM106.069 83.2062C107.725 87.3125 109.131 91.4062 110.294 95.3812C106.294 96.3625 102.069 97.1938 97.6937 97.8188C99.1937 95.475 100.694 93.0562 102.1 90.5812C103.506 88.1437 104.819 85.6562 106.075 83.2062H106.069ZM43.9125 83.3312C45.1625 85.7813 46.475 88.225 47.9125 90.675C49.35 93.1125 50.8188 95.5 52.3188 97.8188C47.975 97.1813 43.7875 96.3813 39.7812 95.4063C40.9062 91.4688 42.3188 87.3937 43.9063 83.325L43.9125 83.3312ZM112 102C112.7 105.081 113.25 108.05 113.587 110.894C115.025 122.569 113.25 131.644 109.125 134.069C108.206 134.631 107.012 134.869 105.606 134.869C99.2812 134.869 89.8937 129.825 79.9187 120.619C84.2062 116.119 88.4813 111.019 92.5438 105.369C99.4625 104.631 106.006 103.494 112 101.994V102ZM38.0625 102.062C44.0625 103.525 50.6 104.656 57.4812 105.387C61.6062 111.044 65.8875 116.181 70.2 120.675C60.2313 129.944 50.875 135.019 44.5125 135.019C43.1375 134.988 41.975 134.706 41.0562 134.194C36.8937 131.819 35.0875 122.731 36.4938 111.05C36.8313 108.175 37.3813 105.15 38.0563 102.062H38.0625ZM66.5625 106.062C69.3125 106.187 72.125 106.275 74.9687 106.275C77.8437 106.275 80.6875 106.212 83.4687 106.062C80.7187 109.637 77.875 112.906 75.0625 115.844C72.2188 112.906 69.375 109.637 66.5625 106.062Z" fill="#149ECA"/>
</svg>
